<?xml version="1.0" encoding="utf-8"?>
<svg xmlns="http://www.w3.org/2000/svg" viewBox="0 0 440 600" width="52px" height="52px" >
  <path d="M61.5 535.6c0-10.4 0-8.1 7.4-19.2C106.6 460.2 186.5 341 208.7 270c4.4-14.1 5.2-14.1 3.7-25.9C202 159.7 173.2 84.3 100.7 84.3c-14.1 0-29.6 5.9-45.1 17-7.4 5.2-12.6 7.4-16.3 7.4-5.2 0-6.7-.7-6.7-8.1 0-19.2 48.1-68.8 88.8-68.8 73.3 0 96.2 100.6 122.8 254.6 9.6 55.5 22.2 117.7 37.7 172.4 8.9 31.1 31.8 37 43.7 37 26.6.7 44.4-11.8 50.3-11.8 3.7 0 8.1 3 8.1 6.7 0 39.2-30.3 69.6-62.2 69.6-24.4 0-45.9-9.6-57-46.6-14.8-48.8-30.3-126.5-37-177.6-.7-3.7-3-4.4-4.4-.7-17.8 44.4-68.1 139.9-102.1 200.5-2.2 4.4-11.1 26.6-17 26.6-10.3-.2-42.8-13.5-42.8-26.9z" fill="#c070a0"/>
</svg>
